<?xml version="1.0" encoding="UTF-8"?>
<svg version="1.1" xmlns="http://www.w3.org/2000/svg" width="648" height="833">
<path d="M0 0 C14.128 9.905 17.685 30.934 20.742 46.859 C23.12 60.621 24.878 74.447 24.945 88.422 C24.952 89.403 24.959 90.384 24.967 91.395 C25.138 122.144 22.917 150.884 15.742 180.859 C15.506 181.847 15.27 182.834 15.027 183.852 C14.789 184.751 14.55 185.651 14.305 186.578 C14.202 186.97 14.202 186.97 13.684 188.951 C12.481 191.389 11.23 191.902 8.742 192.859 C9.527 193.561 10.312 194.262 11.121 194.984 C12.183 195.942 13.244 196.901 14.305 197.859 C14.818 198.317 15.332 198.775 15.861 199.246 C38.471 219.749 54.04 248.063 65.742 275.859 C74.183 295.908 74.183 295.908 80.742 302.859 C81.272 303.443 81.802 304.027 82.348 304.629 C85.705 308.162 89.353 311.158 93.18 314.172 C101.659 321.056 108.692 328.854 110.742 339.859 C112.074 352.944 110.326 365.288 106.742 377.859 C106.56 378.512 106.378 379.166 106.191 379.838 C100.369 400.249 88.926 419.369 75.742 435.859 C74.946 436.861 74.149 437.863 73.328 438.895 C62.581 452.12 50.346 464.586 36.742 474.859 C36.112 475.349 35.483 475.839 34.834 476.343 C6.913 498.034 -23.827 513.615 -57.258 524.859 C-58.412 525.267 -59.565 525.674 -60.754 526.094 C-63.68 526.989 -66.215 527.004 -69.258 526.859 C-69.588 527.849 -69.918 528.839 -70.258 529.859 C-78.019 533.917 -87.076 535.657 -95.57 537.484 C-96.01 537.581 -96.01 537.581 -98.235 538.072 C-118.825 542.276 -139.361 543.287 -160.32 543.047 C-162.663 543.032 -165.007 543.018 -167.35 543.006 C-172.986 542.973 -178.622 542.924 -184.258 542.859 C-183.577 543.196 -182.897 543.533 -182.196 543.88 C-181.3 544.326 -180.405 544.771 -179.482 545.23 C-178.595 545.67 -177.709 546.11 -176.795 546.563 C-153.333 558.547 -134.789 577.777 -123.938 601.75 C-123.258 603.859 -123.258 603.859 -124.258 605.859 C-125.155 605.23 -126.052 604.601 -126.977 603.953 C-150.641 587.614 -178.079 576.251 -207.258 576.859 C-206.685 577.181 -206.111 577.503 -205.521 577.834 C-169.932 597.848 -137.037 622.159 -113.258 655.859 C-112.799 656.5 -112.341 657.14 -111.869 657.8 C-91.994 685.724 -82.222 717.845 -80.258 751.859 C-71.742 743.937 -64.751 735.496 -58.258 725.859 C-58.058 725.563 -58.058 725.563 -57.047 724.063 C-36.771 693.428 -29.979 658.189 -30.195 622.047 C-30.2 620.564 -30.205 619.082 -30.209 617.6 C-30.22 614.019 -30.237 610.439 -30.258 606.859 C-29.598 606.859 -28.938 606.859 -28.258 606.859 C-25.539 611.498 -22.871 616.16 -20.258 620.859 C-19.835 621.619 -19.412 622.378 -18.977 623.16 C-12.646 635.898 -11.035 651.884 -11.195 665.922 C-11.198 666.307 -11.198 666.307 -11.209 668.256 C-11.221 670.124 -11.239 671.992 -11.258 673.859 C9.104 647.39 14.908 614.886 11.309 582.141 C8.121 562.658 -0.341 543.235 -11.258 526.859 C-11.258 525.869 -11.258 524.879 -11.258 523.859 C-10.598 523.859 -9.938 523.859 -9.258 523.859 C-9.258 524.519 -9.258 525.179 -9.258 525.859 C-8.738 526.073 -8.219 526.287 -7.684 526.508 C-4.244 528.424 -1.416 530.915 1.555 533.484 C2.183 534.028 2.812 534.571 3.46 535.131 C7.975 539.085 12.032 543.132 15.742 547.859 C16.508 548.789 17.274 549.718 18.062 550.676 C24.684 558.847 29.913 567.531 34.742 576.859 C35.298 577.928 35.853 578.997 36.426 580.098 C53.465 614.928 54.042 655.057 41.622 691.42 C32.33 717.178 17.217 741.522 -4.258 758.859 C-5.378 755.499 -5.091 754.335 -4.336 750.953 C-3.117 744.713 -2.961 738.702 -3.008 732.359 C-3 731.309 -2.992 730.258 -2.984 729.176 C-3.029 711.088 -3.029 711.088 -6.258 707.859 C-6.448 708.482 -6.638 709.104 -6.833 709.745 C-14.751 735.354 -25.998 758.19 -43.258 778.859 C-43.664 779.358 -44.07 779.857 -44.489 780.371 C-62.848 802.883 -88.085 825.324 -117.258 831.859 C-118.248 831.859 -119.238 831.859 -120.258 831.859 C-120.494 831.266 -120.494 831.266 -121.691 828.266 C-127.783 813.247 -134.438 799.094 -145.258 786.859 C-145.624 786.439 -145.624 786.439 -147.477 784.312 C-149.704 781.795 -151.968 779.32 -154.258 776.859 C-154.87 776.193 -155.482 775.526 -156.113 774.84 C-171.051 759.201 -190.309 747.896 -209.258 737.859 C-209.903 737.517 -210.548 737.175 -211.212 736.822 C-230.548 726.648 -250.883 718.559 -271.133 710.422 C-292.168 701.969 -313.162 693.372 -333.284 682.885 C-335.501 681.733 -337.727 680.599 -339.953 679.465 C-353.874 672.316 -366.745 664.283 -379.258 654.859 C-379.642 654.573 -379.642 654.573 -381.586 653.121 C-404.113 635.99 -425.335 613.209 -430.633 584.422 C-431.795 575.391 -431.415 566.437 -428.258 557.859 C-445.798 550.445 -464.329 554.131 -482.258 557.859 C-474.688 529.614 -449.054 507.22 -424.882 492.372 C-415.132 486.752 -404.728 481.98 -394.258 477.859 C-403.898 474.075 -413.517 470.572 -423.57 468.047 C-424.332 467.853 -425.093 467.658 -425.878 467.458 C-438.018 464.531 -450.004 463.528 -462.444 463.599 C-464.69 463.609 -466.935 463.599 -469.182 463.586 C-478.709 463.577 -487.848 464.343 -497.258 465.859 C-498.482 466.056 -499.707 466.253 -500.969 466.456 C-503.734 466.909 -506.497 467.376 -509.258 467.859 C-507.159 456.315 -498.116 447.057 -490.258 438.859 C-489.584 438.122 -488.909 437.385 -488.215 436.625 C-468.675 415.949 -441.29 404.059 -414.258 396.859 C-428.863 391.431 -445.691 388.75 -461.258 389.859 C-461.582 389.881 -461.582 389.881 -463.224 389.988 C-486.056 391.593 -512.002 396.338 -532.413 406.984 C-534.258 407.859 -534.258 407.859 -537.258 407.859 C-533.413 393.504 -524.613 381.17 -515.258 369.859 C-514.8 369.295 -514.343 368.731 -513.872 368.149 C-496.781 347.11 -476.5 331.813 -452.258 319.859 C-452.754 319.447 -453.25 319.034 -453.762 318.609 C-482.811 293.915 -495.86 247.378 -499.031 210.533 C-500.331 189.493 -500.791 167.525 -496.258 146.859 C-496.037 145.808 -495.817 144.758 -495.59 143.675 C-492.79 130.597 -489.302 117.985 -484.195 105.609 C-483.796 104.64 -483.397 103.671 -482.986 102.673 C-479.184 93.913 -475.108 86.956 -466.258 82.859 C-436.565 73.366 -390.301 96.787 -364.258 109.859 C-363.444 110.264 -362.631 110.669 -361.793 111.085 C-336.069 123.975 -312.419 140.385 -291.258 159.859 C-289.784 161.177 -288.305 162.49 -286.82 163.797 C-286.203 164.342 -285.585 164.887 -284.949 165.449 C-283.258 166.859 -283.258 166.859 -280.258 168.859 C-280.588 165.229 -280.918 161.599 -281.258 157.859 C-220.989 125.109 -139.087 130.646 -75.131 149.206 C-70.156 150.704 -65.197 152.245 -60.258 153.859 C-77.667 142.29 -95.324 133.204 -115.258 126.859 C-115.61 126.746 -115.61 126.746 -117.39 126.172 C-132.436 121.374 -147.605 118.771 -163.258 116.859 C-161.743 112.025 -158.991 108.888 -155.695 105.172 C-155.157 104.555 -154.619 103.939 -154.065 103.304 C-152.471 101.482 -150.867 99.669 -149.258 97.859 C-148.849 97.4 -148.849 97.4 -146.781 95.074 C-145.335 93.462 -143.884 91.855 -142.426 90.254 C-140.871 88.536 -139.334 86.803 -137.809 85.059 C-137.008 84.147 -136.208 83.236 -135.383 82.297 C-134.664 81.471 -133.944 80.644 -133.203 79.793 C-131.258 77.859 -131.258 77.859 -128.258 76.859 C-128.258 76.199 -128.258 75.539 -128.258 74.859 C-126.789 73.414 -126.789 73.414 -124.758 71.734 C-121.842 69.262 -119.101 66.734 -116.445 63.984 C-111.709 59.193 -106.515 55.06 -101.258 50.859 C-100.133 49.934 -99.009 49.007 -97.887 48.078 C-78.677 32.291 -57.653 18.67 -35.258 7.859 C-34.339 7.414 -33.42 6.97 -32.474 6.511 C-8.978 -4.535 -8.978 -4.535 0 0 Z M-34.418 266.301 C-44.796 279.628 -47.572 294.37 -46.258 310.859 C-44.572 319.859 -40.584 327.855 -36.258 335.859 C-23.144 336.608 -13.317 335.476 -2.883 326.609 C7.613 316.434 12.646 304.375 13.742 289.859 C13.885 276.353 9.582 264.813 1.402 254.105 C-9.346 246.038 -27.392 258.361 -34.418 266.301 Z M-285.258 322.859 C-285.862 323.446 -286.467 324.032 -287.09 324.637 C-289.177 326.977 -290.309 328.952 -290.129 332.129 C-286.234 347.684 -273.377 360.535 -260.258 368.859 C-245.371 377.547 -229.542 379.777 -212.793 375.867 C-203.147 373.117 -195.13 369.076 -187.258 362.859 C-186.687 362.426 -186.116 361.993 -185.527 361.547 C-183.083 359.466 -182.288 358.018 -181.695 354.859 C-182.924 339.585 -191.335 326.084 -202.258 315.859 C-214.995 305.239 -229.791 301.326 -246.143 302.62 C-261.39 304.345 -274.714 311.965 -285.258 322.859 Z M-87.812 359.602 C-92.696 366.307 -95.391 374.144 -98.258 381.859 C-96.258 382.859 -96.258 382.859 -94.5 382.41 C-93.79 382.143 -93.079 381.876 -92.348 381.602 C-91.534 381.308 -90.72 381.014 -89.882 380.711 C-88.995 380.389 -88.109 380.066 -87.195 379.734 C-75.129 375.499 -62.826 373.088 -50.258 370.859 C-53.896 362.862 -58.005 358.499 -66.195 354.984 C-74.29 352.334 -81.926 353.005 -87.812 359.602 Z " fill="#2D7DD2" transform="translate(537.2578125,1.140625)"/>
<path d="M0 0 C2.65 0.005 5.3 0 7.95 -0.006 C16.877 -0.009 25.703 0.141 34.589 1.13 C34.589 1.46 34.589 1.79 34.589 2.13 C34.004 2.128 33.42 2.126 32.818 2.124 C26.751 2.102 20.685 2.086 14.618 2.075 C12.352 2.07 10.086 2.064 7.82 2.055 C4.568 2.043 1.317 2.037 -1.935 2.033 C-2.953 2.028 -3.97 2.022 -5.019 2.017 C-5.96 2.017 -6.901 2.017 -7.87 2.017 C-8.7 2.015 -9.531 2.012 -10.387 2.01 C-12.411 2.13 -12.411 2.13 -14.411 3.13 C-17.135 3.041 -19.822 2.897 -22.536 2.693 C-22.913 2.667 -22.913 2.667 -24.822 2.535 C-26.685 2.405 -28.548 2.268 -30.411 2.13 C-30.411 1.8 -30.411 1.47 -30.411 1.13 C-20.263 0.113 -10.19 -0.025 0 0 Z " fill="#2D7DD2" transform="translate(363.411376953125,136.86962890625)"/>
<path d="M0 0 C0.66 0.33 1.32 0.66 2 1 C-4.813 8.538 -11.743 15.885 -19 23 C-19.99 22.67 -20.98 22.34 -22 22 C-6.937 5.536 -6.937 5.536 0 0 Z " fill="#2D7DD2" transform="translate(48,344)"/>
<path d="M0 0 C0.66 0.33 1.32 0.66 2 1 C-4.499 8.179 -11.073 15.227 -18 22 C-18.99 21.67 -19.98 21.34 -21 21 C-18.819 18.619 -16.629 16.246 -14.438 13.875 C-13.828 13.21 -13.219 12.545 -12.592 11.859 C-8.622 7.574 -4.504 3.721 0 0 Z " fill="#2D7DD2" transform="translate(92,508)"/>
<path d="M0 0 C0.277 0.018 0.277 0.018 1.677 0.108 C21.179 1.323 21.179 1.323 30 0 C28.738 2.524 27.5 2.828 25 4 C24.67 4.33 24.34 4.66 24 5 C21.647 5.073 19.292 5.084 16.938 5.062 C15.647 5.053 14.357 5.044 13.027 5.035 C12.028 5.024 11.029 5.012 10 5 C10 4.34 10 3.68 10 3 C7.03 3 4.06 3 1 3 C0.67 2.01 0.34 1.02 0 0 Z " fill="#2D7DD2" transform="translate(293,377)"/>
<path d="M0 0 C0.66 0 1.32 0 2 0 C3.389 1.961 4.726 3.962 6 6 C5.67 6.66 5.34 7.32 5 8 C4.01 7.34 3.02 6.68 2 6 C2.005 6.766 2.01 7.531 2.016 8.32 C2.037 11.838 2.05 15.357 2.062 18.875 C2.071 20.079 2.079 21.283 2.088 22.523 C2.107 29.417 1.876 36.159 1 43 C0.67 43 0.34 43 0 43 C0 28.81 0 14.62 0 0 Z " fill="#2D7DD2" transform="translate(507,608)"/>
<path d="M0 0 C0.66 0 1.32 0 2 0 C2 0.66 2 1.32 2 2 C2.557 2.227 3.114 2.454 3.688 2.688 C6.632 4.359 8.682 6.553 11 9 C10.01 9 9.02 9 8 9 C7.67 8.67 7.34 8.34 7 8 C6.67 8.495 6.67 8.495 5 11 C4.158 9.735 3.327 8.462 2.5 7.188 C2.268 6.834 2.268 6.834 1.094 5.043 C0 3 0 3 0 0 Z " fill="#2D7DD2" transform="translate(526,525)"/>
<path d="M0 0 C0.99 0.33 1.98 0.66 3 1 C-0.943 4.409 -4.905 7.773 -9 11 C-9.66 10.67 -10.32 10.34 -11 10 C-9.377 8.291 -7.707 6.626 -6 5 C-5.34 5 -4.68 5 -4 5 C-4 4.34 -4 3.68 -4 3 C-2.188 1.312 -2.188 1.312 0 0 Z " fill="#2D7DD2" transform="translate(413,73)"/>
<path d="M0 0 C-1 2 -1 2 -4 3.562 C-7.338 6.275 -7.457 6.719 -7.875 10.75 C-7.943 12.166 -7.994 13.583 -8 15 C-8.33 15 -8.66 15 -9 15 C-9.33 11.37 -9.66 7.74 -10 4 C-3.375 0 -3.375 0 0 0 Z " fill="#2D7DD2" transform="translate(266,155)"/>
<path d="M0 0 C0.33 0 0.66 0 1 0 C1.415 3.386 1.598 5.975 -0.16 8.988 C-2.566 11.96 -4.191 13.736 -7.875 14.938 C-8.576 14.958 -9.277 14.979 -10 15 C-5 10 -5 10 -2.75 8.062 C-0.529 5.445 -0.306 3.369 0 0 Z " fill="#2D7DD2" transform="translate(355,353)"/>
<path d="M0 0 C0.66 0.33 1.32 0.66 2 1 C1.361 1.124 0.721 1.248 0.062 1.375 C-0.618 1.581 -1.299 1.788 -2 2 C-2.33 2.66 -2.66 3.32 -3 4 C-6.228 6.152 -7.284 6.201 -11 6 C-7.579 3.126 -4.161 1.541 0 0 Z " fill="#2D7DD2" transform="translate(136,482)"/>
<path d="M0 0 C0.33 0.99 0.66 1.98 1 3 C-1.31 4.98 -3.62 6.96 -6 9 C-6 6 -6 6 -4.688 4.395 C-4.131 3.872 -3.574 3.35 -3 2.812 C-2.443 2.283 -1.886 1.753 -1.312 1.207 C-1.096 1.008 -1.096 1.008 0 0 Z " fill="#2D7DD2" transform="translate(51,436)"/>
<path d="M0 0 C4.95 0.33 9.9 0.66 15 1 C15 1.33 15 1.66 15 2 C10.38 2.33 5.76 2.66 1 3 C0.67 2.01 0.34 1.02 0 0 Z " fill="#2D7DD2" transform="translate(293,377)"/>
<path d="M0 0 C0.33 0.66 0.66 1.32 1 2 C-0.433 4.729 -1.817 6.817 -4 9 C-4.99 8.67 -5.98 8.34 -7 8 C-4.69 5.36 -2.38 2.72 0 0 Z " fill="#2D7DD2" transform="translate(401,84)"/>
<path d="M0 0 C0.66 0 1.32 0 2 0 C2 0.66 2 1.32 2 2 C3.32 2.66 4.64 3.32 6 4 C5.67 4.165 5.67 4.165 4 5 C3.67 5.99 3.34 6.98 3 8 C0 3.375 0 3.375 0 0 Z " fill="#2D7DD2" transform="translate(526,525)"/>
<path d="M0 0 C0.495 0.33 0.495 0.33 3 2 C2.67 2.66 2.34 3.32 2 4 C4.31 4.33 6.62 4.66 9 5 C6.353 6.461 5.106 7 2 7 C1.34 4.69 0.68 2.38 0 0 Z " fill="#2D7DD2" transform="translate(415,826)"/>
<path d="M0 0 C3 3.75 3 3.75 3 6 C1.35 6.33 -0.3 6.66 -2 7 C-1.34 4.69 -0.68 2.38 0 0 Z " fill="#2D7DD2" transform="translate(2,402)"/>
<path d="M0 0 C-1.155 0.99 -1.155 0.99 -7 6 C-6.75 3.625 -6.75 3.625 -6 1 C-2.693 -1.347 -2.693 -1.347 0 0 Z " fill="#2D7DD2" transform="translate(68,89)"/>
<path d="M0 0 C0.33 0 0.66 0 1 0 C1 4.29 1 8.58 1 13 C0.01 13 -0.98 13 -2 13 C-1.34 8.71 -0.68 4.42 0 0 Z " fill="#2D7DD2" transform="translate(534,746)"/>
</svg>
